<?xml version="1.0" standalone="no"?>
<!DOCTYPE svg PUBLIC "-//W3C//DTD SVG 20010904//EN"
 "http://www.w3.org/TR/2001/REC-SVG-20010904/DTD/svg10.dtd">
<svg version="1.0" xmlns="http://www.w3.org/2000/svg"
 width="900.000000pt" height="629.000000pt" viewBox="0 0 900.000000 629.000000"
 preserveAspectRatio="xMidYMid meet">

<g transform="translate(0.000000,629.000000) scale(0.100000,-0.100000)"
fill="#000000" stroke="none">
<path d="M3223 5115 c-230 -62 -393 -274 -393 -512 0 -137 50 -260 147 -363
205 -218 541 -223 754 -11 174 174 208 434 82 648 -64 109 -192 205 -318 238
-73 19 -202 18 -272 0z"/>
<path d="M4067 5052 l-27 -28 0 -421 0 -422 24 -28 24 -28 426 0 426 0 27 28
28 27 3 393 c2 215 0 407 -3 426 -4 18 -17 44 -30 57 l-24 24 -424 0 -423 0
-27 -28z"/>
<path d="M5225 5056 c-13 -13 -26 -39 -30 -57 -3 -19 -5 -211 -3 -426 l3 -393
28 -27 27 -28 426 0 426 0 24 28 24 28 0 423 0 423 -26 27 -27 26 -424 0 -424
0 -24 -24z"/>
<path d="M2935 3916 c-54 -24 -55 -32 -55 -476 l0 -408 26 -31 26 -31 423 0
424 0 28 24 28 24 3 421 3 420 -30 33 -29 33 -409 2 c-322 2 -414 0 -438 -11z"/>
<path d="M4093 3916 c-17 -8 -36 -23 -42 -35 -7 -13 -11 -159 -11 -441 l0
-421 25 -24 24 -25 426 0 426 0 24 24 c13 13 26 39 30 57 3 19 5 211 3 426
l-3 393 -28 27 -27 28 -408 2 c-331 2 -413 0 -439 -11z"/>
<path d="M2928 2754 c-15 -8 -32 -23 -38 -34 -6 -12 -10 -170 -10 -435 l0
-417 29 -29 29 -29 421 0 420 0 28 24 28 24 3 413 c3 446 2 458 -49 484 -42
22 -821 21 -861 -1z"/>
<path d="M4094 2760 c-54 -22 -54 -21 -54 -476 l0 -422 31 -26 31 -26 417 0
418 0 26 24 c14 13 28 39 32 57 3 19 5 211 3 427 l-3 394 -33 29 -32 29 -408
-1 c-224 0 -417 -4 -428 -9z"/>
<path d="M5228 2741 l-33 -29 -3 -394 c-2 -216 0 -408 3 -427 4 -18 17 -44 30
-57 l24 -24 420 0 419 0 31 26 31 26 0 423 0 424 -24 28 -24 28 -421 3 -420 3
-33 -30z"/>
<path d="M2909 1581 l-29 -29 0 -421 0 -420 24 -28 24 -28 404 -3 c221 -2 418
0 436 3 23 4 39 16 52 38 19 30 20 53 20 434 0 290 -3 409 -12 428 -24 54 -32
55 -478 55 l-412 0 -29 -29z"/>
<path d="M4069 1581 l-29 -29 0 -425 0 -425 31 -26 31 -26 408 0 c285 0 417 3
434 11 54 25 56 43 56 469 0 426 -2 444 -56 469 -17 8 -150 11 -435 11 l-411
0 -29 -29z"/>
</g>
</svg>
